<?xml version="1.0" encoding="utf-8"?>
<!-- Generator: Adobe Illustrator 18.1.1, SVG Export Plug-In . SVG Version: 6.00 Build 0)  -->
<svg version="1.1" id="Layer_1" xmlns="http://www.w3.org/2000/svg" xmlns:xlink="http://www.w3.org/1999/xlink" x="0px" y="0px"
	 viewBox="0 0 415.6 46.9" enable-background="new 0 0 415.6 46.9" xml:space="preserve">
<g>
	<path fill="#F9F9FA" d="M160.2,44.4c0,1.4-1.1,2.5-2.5,2.5H87.6c-1.4,0-2.5-1.1-2.5-2.5V2.5c0-1.4,1.1-2.5,2.5-2.5h70.1
		c1.4,0,2.5,1.1,2.5,2.5V44.4z"/>
	<g>
		<g>
			<polygon fill="#0A67B2" points="119.3,31.1 114.9,31.1 117.6,14.5 122,14.5 			"/>
			<path fill="#0A67B2" d="M111.3,14.5l-4.1,11.4l-0.5-2.5v0l-1.5-7.5c0,0-0.2-1.5-2-1.5h-6.8l-0.1,0.3c0,0,2.1,0.4,4.5,1.9
				l3.7,14.4h4.5l6.9-16.6H111.3z"/>
			<path fill="#0A67B2" d="M145.3,31.1h4l-3.5-16.6h-3.5c-1.6,0-2,1.2-2,1.2l-6.4,15.3h4.5l0.9-2.5h5.5L145.3,31.1z M140.5,25.2
				l2.3-6.2l1.3,6.2H140.5z"/>
			<path fill="#0A67B2" d="M134.2,18.5l0.6-3.6c0,0-1.9-0.7-3.9-0.7c-2.1,0-7.2,0.9-7.2,5.5c0,4.3,6,4.3,6,6.6
				c0,2.2-5.4,1.8-7.1,0.4l-0.6,3.7c0,0,1.9,0.9,4.9,0.9c2.9,0,7.4-1.5,7.4-5.7c0-4.3-6-4.7-6-6.6C128.2,17.2,132.4,17.5,134.2,18.5
				z"/>
		</g>
		<path fill="#FAA634" d="M106.7,23.4l-1.5-7.5c0,0-0.2-1.5-2-1.5h-6.8l-0.1,0.3c0,0,3.3,0.7,6.4,3.2
			C105.7,20.4,106.7,23.4,106.7,23.4z"/>
	</g>
</g>
<g>
	<path fill="#F9F9FA" d="M245.3,44.4c0,1.4-1.1,2.5-2.5,2.5h-70.1c-1.4,0-2.5-1.1-2.5-2.5V2.5c0-1.4,1.1-2.5,2.5-2.5h70.1
		c1.4,0,2.5,1.1,2.5,2.5V44.4z"/>
	<g>
		<polygon fill-rule="evenodd" clip-rule="evenodd" fill="#FBB230" points="218.1,38.9 218.9,38.9 219.7,38.9 220.5,38.8 
			221.3,38.6 222,38.5 222.7,38.3 223.5,38 224.2,37.7 224.9,37.4 225.5,37.1 226.2,36.7 226.8,36.3 227.4,35.9 228,35.4 
			228.6,34.9 229.1,34.4 229.6,33.9 230.1,33.3 230.6,32.7 231,32.1 231.4,31.5 231.8,30.8 232.1,30.2 232.4,29.5 232.7,28.8 
			232.9,28.1 233.1,27.3 233.3,26.6 233.5,25.8 233.6,25 233.6,24.2 233.6,23.4 233.6,22.7 233.6,21.9 233.5,21.1 233.3,20.3 
			233.1,19.6 232.9,18.9 232.7,18.1 232.4,17.4 232.1,16.8 231.8,16.1 231.4,15.5 231,14.8 230.6,14.2 230.1,13.6 229.6,13.1 
			229.1,12.5 228.6,12 228,11.5 227.4,11.1 226.8,10.6 226.2,10.2 225.5,9.9 224.9,9.5 224.2,9.2 223.5,8.9 222.7,8.7 222,8.5 
			221.3,8.3 220.5,8.2 219.7,8.1 218.9,8 218.1,8 217.3,8 216.5,8.1 215.8,8.2 215,8.3 214.3,8.5 213.5,8.7 212.8,8.9 212.1,9.2 
			211.4,9.5 210.8,9.9 210.1,10.2 209.5,10.6 208.9,11.1 208.3,11.5 207.7,12 207.2,12.5 206.7,13.1 206.2,13.6 205.8,14.2 
			205.3,14.8 204.9,15.5 204.5,16.1 204.2,16.8 203.9,17.4 203.6,18.1 203.4,18.9 203.2,19.6 203,20.3 202.9,21.1 202.8,21.9 
			202.7,22.7 202.7,23.4 202.7,24.2 202.8,25 202.9,25.8 203,26.6 203.2,27.3 203.4,28.1 203.6,28.8 203.9,29.5 204.2,30.2 
			204.5,30.8 204.9,31.5 205.3,32.1 205.8,32.7 206.2,33.3 206.7,33.9 207.2,34.4 207.7,34.9 208.3,35.4 208.9,35.9 209.5,36.3 
			210.1,36.7 210.8,37.1 211.4,37.4 212.1,37.7 212.8,38 213.5,38.3 214.3,38.5 215,38.6 215.8,38.8 216.5,38.9 217.3,38.9 
			218.1,38.9 218.1,38.9 		"/>
		<polygon fill-rule="evenodd" clip-rule="evenodd" fill="#EB2230" points="197.4,38.9 198.2,38.9 199,38.9 199.8,38.8 200.5,38.6 
			201.3,38.5 202,38.3 202.7,38 203.4,37.7 204.1,37.4 204.8,37.1 205.4,36.7 206.1,36.3 206.7,35.9 207.3,35.4 207.8,34.9 
			208.4,34.4 208.9,33.9 209.4,33.3 209.8,32.7 210.2,32.1 210.6,31.5 211,30.8 211.4,30.2 211.7,29.5 211.9,28.8 212.2,28.1 
			212.4,27.3 212.6,26.6 212.7,25.8 212.8,25 212.9,24.2 212.9,23.4 212.9,22.7 212.8,21.9 212.7,21.1 212.6,20.3 212.4,19.6 
			212.2,18.9 211.9,18.1 211.7,17.4 211.4,16.8 211,16.1 210.6,15.5 210.2,14.8 209.8,14.2 209.4,13.6 208.9,13.1 208.4,12.5 
			207.8,12 207.3,11.5 206.7,11.1 206.1,10.6 205.4,10.2 204.8,9.9 204.1,9.5 203.4,9.2 202.7,8.9 202,8.7 201.3,8.5 200.5,8.3 
			199.8,8.2 199,8.1 198.2,8 197.4,8 196.6,8 195.8,8.1 195.1,8.2 194.3,8.3 193.6,8.5 192.8,8.7 192.1,8.9 191.4,9.2 190.7,9.5 
			190,9.9 189.4,10.2 188.8,10.6 188.2,11.1 187.6,11.5 187,12 186.5,12.5 186,13.1 185.5,13.6 185,14.2 184.6,14.8 184.2,15.5 
			183.8,16.1 183.5,16.8 183.1,17.4 182.9,18.1 182.6,18.9 182.4,19.6 182.2,20.3 182.1,21.1 182,21.9 182,22.7 181.9,23.4 
			182,24.2 182,25 182.1,25.8 182.2,26.6 182.4,27.3 182.6,28.1 182.9,28.8 183.1,29.5 183.5,30.2 183.8,30.8 184.2,31.5 
			184.6,32.1 185,32.7 185.5,33.3 186,33.9 186.5,34.4 187,34.9 187.6,35.4 188.2,35.9 188.8,36.3 189.4,36.7 190,37.1 190.7,37.4 
			191.4,37.7 192.1,38 192.8,38.3 193.6,38.5 194.3,38.6 195.1,38.8 195.8,38.9 196.6,38.9 197.4,38.9 197.4,38.9 		"/>
		<polygon fill-rule="evenodd" clip-rule="evenodd" fill="#FBB230" points="206,13.9 214.2,13.9 214.2,13.1 206.7,13.1 206,13.9 
			206,13.9 		"/>
		<polygon fill-rule="evenodd" clip-rule="evenodd" fill="#FBB230" points="204.7,15.8 214.2,15.8 214.2,15 205.2,15 204.7,15.8 
			204.7,15.8 		"/>
		<polygon fill-rule="evenodd" clip-rule="evenodd" fill="#FBB230" points="203.8,17.7 214.2,17.7 214.2,16.8 204.2,16.8 
			203.8,17.7 203.8,17.7 		"/>
		<polygon fill-rule="evenodd" clip-rule="evenodd" fill="#FBB230" points="203.2,19.5 214.2,19.5 214.2,18.7 203.4,18.7 
			203.2,19.5 203.2,19.5 		"/>
		<polygon fill-rule="evenodd" clip-rule="evenodd" fill="#FBB230" points="203.6,28.6 214.2,28.6 214.2,27.7 203.3,27.7 
			203.6,28.6 203.6,28.6 		"/>
		<polygon fill-rule="evenodd" clip-rule="evenodd" fill="#FBB230" points="204.3,30.4 214.2,30.4 214.2,29.6 203.9,29.6 
			204.3,30.4 204.3,30.4 		"/>
		<polygon fill-rule="evenodd" clip-rule="evenodd" fill="#FBB230" points="205.4,32.3 214.2,32.3 214.2,31.5 204.9,31.5 
			205.4,32.3 205.4,32.3 		"/>
		<polygon fill-rule="evenodd" clip-rule="evenodd" fill="#FBB230" points="207,34.2 214.2,34.2 214.2,33.3 206.2,33.3 207,34.2 
			207,34.2 		"/>
		<polygon fill-rule="evenodd" clip-rule="evenodd" fill="#FBB230" points="202.8,21.4 214.2,21.4 214.2,20.6 203,20.6 202.8,21.4 
			202.8,21.4 		"/>
		<polygon fill-rule="evenodd" clip-rule="evenodd" fill="#FBB230" points="209.7,26.7 214.1,26.7 214.1,25.9 209.9,25.9 
			209.7,26.7 209.7,26.7 		"/>
		<polygon fill-rule="evenodd" clip-rule="evenodd" fill="#FBB230" points="210.1,24.8 214.1,24.8 214.1,24 210.2,24 210.1,24.8 
			210.1,24.8 		"/>
		<polygon fill-rule="evenodd" clip-rule="evenodd" fill="#FBB230" points="202.5,24 203.7,24 203.7,24.8 202.6,24.8 202.5,24 
			202.5,24 		"/>
		<polygon fill-rule="evenodd" clip-rule="evenodd" fill="#FFFFFF" points="200.4,23 200.4,23 200.3,23 200.2,23 200.1,22.9 
			200.1,22.9 200,22.9 199.9,22.9 199.9,22.9 199.8,22.9 199.7,22.9 199.6,22.9 199.5,22.9 199.4,22.9 199.3,22.9 199.2,22.9 
			199,22.9 198.9,22.9 198.8,22.9 198.7,23 198.6,23 198.6,23 198.5,23.1 198.4,23.1 198.4,23.2 198.4,23.2 198.3,23.3 198.3,23.3 
			198.3,23.4 198.3,23.5 198.4,23.5 198.4,23.6 198.5,23.7 198.6,23.8 198.7,23.9 198.8,23.9 199,24 199.2,24 199.3,24.1 
			199.5,24.2 199.7,24.2 199.8,24.3 200,24.4 200.1,24.6 200.2,24.7 200.3,24.9 200.3,25.1 200.4,25.4 200.3,25.8 200.3,26 
			200.2,26.2 200.2,26.4 200.1,26.6 199.9,26.7 199.8,26.9 199.7,27 199.5,27.1 199.3,27.2 199.2,27.2 199,27.3 198.8,27.3 
			198.6,27.4 198.4,27.4 198.3,27.4 198.1,27.4 197.9,27.4 197.7,27.4 197.5,27.4 197.3,27.4 197.2,27.4 197,27.4 196.9,27.4 
			196.8,27.3 196.7,27.3 196.6,27.3 196.5,27.3 196.4,27.3 196.3,27.2 196.2,27.2 196.1,27.2 196,27.1 196.3,26 196.3,26 196.4,26 
			196.5,26 196.5,26.1 196.6,26.1 196.7,26.1 196.9,26.1 197,26.2 197.1,26.2 197.2,26.2 197.4,26.2 197.5,26.2 197.7,26.2 
			197.8,26.2 198,26.2 198.1,26.2 198.3,26.2 198.4,26.2 198.5,26.1 198.6,26 198.6,26 198.7,25.9 198.7,25.8 198.7,25.7 
			198.7,25.6 198.7,25.4 198.6,25.3 198.5,25.2 198.3,25.2 198.1,25.1 197.9,25 197.7,24.9 197.5,24.8 197.3,24.7 197.1,24.6 
			197,24.4 196.8,24.2 196.7,24 196.7,23.7 196.7,23.4 196.7,23.2 196.8,23 196.8,22.8 196.9,22.6 197,22.5 197,22.3 197.2,22.2 
			197.3,22.1 197.4,22 197.6,21.9 197.8,21.8 198,21.8 198.2,21.7 198.5,21.7 198.8,21.7 199.1,21.7 199.3,21.7 199.5,21.7 
			199.6,21.7 199.8,21.7 199.9,21.7 200,21.7 200.1,21.7 200.2,21.7 200.3,21.7 200.4,21.7 200.4,21.8 200.5,21.8 200.6,21.8 
			200.6,21.8 200.7,21.8 200.7,21.8 200.4,23 200.4,23 		"/>
		<polyline fill="none" stroke="#FFFFFF" stroke-width="0.216" stroke-miterlimit="2.6131" points="200.4,23 200.4,23 200.4,23 
			200.3,23 200.2,23 200.1,22.9 200.1,22.9 200,22.9 199.9,22.9 199.9,22.9 199.8,22.9 199.7,22.9 199.6,22.9 199.5,22.9 
			199.4,22.9 199.3,22.9 199.2,22.9 199,22.9 199,22.9 198.9,22.9 198.8,22.9 198.7,23 198.6,23 198.6,23 198.5,23.1 198.4,23.1 
			198.4,23.2 198.4,23.2 198.3,23.3 198.3,23.3 198.3,23.4 198.3,23.5 198.4,23.5 198.4,23.6 198.5,23.7 198.5,23.7 198.6,23.8 
			198.7,23.9 198.8,23.9 199,24 199.2,24 199.3,24.1 199.5,24.2 199.7,24.2 199.8,24.3 200,24.4 200.1,24.6 200.2,24.7 200.3,24.9 
			200.3,25.1 200.4,25.4 200.3,25.8 200.3,25.8 200.3,26 200.2,26.2 200.2,26.4 200.1,26.6 199.9,26.7 199.8,26.9 199.7,27 
			199.5,27.1 199.3,27.2 199.2,27.2 199,27.3 198.8,27.3 198.6,27.4 198.4,27.4 198.3,27.4 198.1,27.4 198.1,27.4 197.9,27.4 
			197.7,27.4 197.5,27.4 197.3,27.4 197.2,27.4 197,27.4 196.9,27.4 196.8,27.3 196.7,27.3 196.6,27.3 196.5,27.3 196.4,27.3 
			196.3,27.2 196.2,27.2 196.1,27.2 196,27.1 196.3,26 196.3,26 196.3,26 196.4,26 196.5,26 196.5,26.1 196.6,26.1 196.7,26.1 
			196.9,26.1 197,26.2 197.1,26.2 197.2,26.2 197.4,26.2 197.5,26.2 197.7,26.2 197.8,26.2 198,26.2 198.1,26.2 198.1,26.2 
			198.3,26.2 198.4,26.2 198.5,26.1 198.6,26 198.6,26 198.7,25.9 198.7,25.8 198.7,25.7 198.7,25.7 198.7,25.6 198.7,25.4 
			198.6,25.3 198.5,25.2 198.3,25.2 198.1,25.1 197.9,25 197.7,24.9 197.5,24.8 197.3,24.7 197.1,24.6 197,24.4 196.8,24.2 
			196.7,24 196.7,23.7 196.7,23.4 196.7,23.4 196.7,23.2 196.8,23 196.8,22.8 196.9,22.6 197,22.5 197,22.3 197.2,22.2 197.3,22.1 
			197.4,22 197.6,21.9 197.8,21.8 198,21.8 198.2,21.7 198.5,21.7 198.8,21.7 199.1,21.7 199.1,21.7 199.3,21.7 199.5,21.7 
			199.6,21.7 199.8,21.7 199.9,21.7 200,21.7 200.1,21.7 200.2,21.7 200.3,21.7 200.4,21.7 200.4,21.8 200.5,21.8 200.6,21.8 
			200.6,21.8 200.7,21.8 200.7,21.8 200.4,23 		"/>
		<polygon fill-rule="evenodd" clip-rule="evenodd" fill="#FFFFFF" points="201.7,20.5 203.1,20.5 202.9,21.8 203.8,21.8 203.6,23 
			202.7,22.9 202.2,25.8 202.2,25.9 202.2,26 202.2,26.1 202.3,26.2 202.4,26.2 202.5,26.2 202.6,26.2 202.7,26.3 202.9,26.2 
			203,26.2 203.1,26.2 203.1,26.2 203.2,26.2 203.3,26.2 203.3,26.2 203.3,26.2 203.1,27.1 203.1,27.1 203,27.2 203,27.2 203,27.2 
			202.9,27.2 202.9,27.2 202.8,27.3 202.8,27.3 202.7,27.3 202.7,27.3 202.6,27.3 202.6,27.3 202.5,27.3 202.4,27.3 202.3,27.4 
			202.2,27.4 201.8,27.4 201.6,27.3 201.5,27.3 201.3,27.3 201.1,27.3 201,27.2 200.9,27.2 200.8,27.1 200.8,27 200.7,27 
			200.7,26.9 200.7,26.8 200.6,26.7 200.6,26.6 200.6,26.5 200.7,26.3 200.7,26.2 201.7,20.5 201.7,20.5 		"/>
		<polyline fill="none" stroke="#FFFFFF" stroke-width="0.216" stroke-miterlimit="2.6131" points="201.7,20.5 203.1,20.5 
			202.9,21.8 203.8,21.8 203.6,23 202.7,22.9 202.2,25.8 202.2,25.8 202.2,25.9 202.2,26 202.2,26.1 202.3,26.2 202.4,26.2 
			202.5,26.2 202.6,26.2 202.7,26.3 202.7,26.3 202.9,26.2 203,26.2 203.1,26.2 203.1,26.2 203.2,26.2 203.3,26.2 203.3,26.2 
			203.3,26.2 203.1,27.1 203.1,27.1 203.1,27.1 203,27.2 203,27.2 203,27.2 202.9,27.2 202.9,27.2 202.8,27.3 202.8,27.3 
			202.7,27.3 202.7,27.3 202.6,27.3 202.6,27.3 202.5,27.3 202.4,27.3 202.3,27.4 202.2,27.4 201.8,27.4 201.8,27.4 201.6,27.3 
			201.5,27.3 201.3,27.3 201.1,27.3 201,27.2 200.9,27.2 200.8,27.1 200.8,27 200.7,27 200.7,26.9 200.7,26.8 200.6,26.7 
			200.6,26.6 200.6,26.5 200.7,26.3 200.7,26.2 201.7,20.5 		"/>
		<polyline fill="none" stroke="#FFFFFF" stroke-width="0.216" stroke-miterlimit="2.6131" points="204.9,24.9 204.9,24.9 204.9,25 
			204.9,25.1 204.9,25.2 204.9,25.3 205,25.4 205,25.5 205.1,25.6 205.1,25.7 205.2,25.8 205.3,25.8 205.4,25.9 205.5,26 205.6,26 
			205.7,26.1 205.8,26.1 205.9,26.2 205.9,26.2 206,26.2 206.1,26.2 206.3,26.2 206.4,26.2 206.5,26.2 206.7,26.2 206.8,26.2 
			207,26.2 207.1,26.2 207.2,26.2 207.4,26.1 207.5,26.1 207.7,26 207.8,26 208,25.9 208.1,25.8 207.9,27.1 207.9,27.1 207.8,27.1 
			207.7,27.2 207.7,27.2 207.6,27.2 207.5,27.2 207.4,27.3 207.3,27.3 207.2,27.3 207.2,27.3 207,27.3 206.9,27.3 206.8,27.4 
			206.7,27.4 206.5,27.4 206.4,27.4 206.2,27.4 206.2,27.4 206,27.4 205.7,27.3 205.4,27.3 205.2,27.2 204.9,27.2 204.7,27.1 
			204.4,26.9 204.2,26.8 204,26.6 203.8,26.4 203.7,26.1 203.6,25.9 203.5,25.6 203.4,25.2 203.4,24.8 203.4,24.4 203.4,24.4 
			203.4,24.2 203.5,24 203.5,23.8 203.6,23.6 203.7,23.4 203.7,23.2 203.9,22.9 204,22.7 204.2,22.5 204.4,22.3 204.6,22.1 
			204.9,22 205.2,21.8 205.5,21.7 205.9,21.7 206.3,21.7 206.3,21.7 206.5,21.7 206.7,21.7 206.9,21.7 207.2,21.8 207.4,21.9 
			207.6,21.9 207.8,22.1 207.9,22.2 208.1,22.4 208.2,22.6 208.3,22.8 208.4,23.1 208.4,23.4 208.4,23.8 208.4,24.2 208.3,24.6 
			208.3,24.9 204.5,24.9 204.7,23.9 207,23.9 207,23.9 207,23.8 207,23.7 207,23.5 207,23.4 207,23.3 206.9,23.3 206.9,23.2 
			206.8,23.1 206.8,23 206.7,23 206.6,22.9 206.5,22.9 206.4,22.9 206.4,22.8 206.3,22.8 206.2,22.8 206.2,22.8 206.1,22.8 
			206,22.8 205.9,22.9 205.8,22.9 205.7,22.9 205.6,23 205.6,23 205.5,23.1 205.4,23.2 205.4,23.3 205.3,23.3 205.3,23.4 
			205.2,23.5 205.2,23.6 205.1,23.7 205.1,23.8 204.9,24.9 		"/>
		<polygon fill-rule="evenodd" clip-rule="evenodd" fill="#FFFFFF" points="217.4,22.1 217.3,22 217.2,22 217.2,22 217.1,21.9 
			217,21.9 216.9,21.9 216.8,21.8 216.7,21.8 216.6,21.8 216.5,21.8 216.4,21.8 216.3,21.7 216.2,21.7 216.1,21.7 215.9,21.7 
			215.8,21.7 215.7,21.7 215.6,21.7 215.4,21.7 215.3,21.8 215.1,21.8 215,21.9 214.8,21.9 214.7,22 214.5,22.1 214.4,22.3 
			214.3,22.5 214.1,22.6 214,22.9 213.9,23.1 213.8,23.4 213.7,23.8 213.7,23.9 213.7,24.1 213.7,24.3 213.7,24.5 213.7,24.7 
			213.7,24.8 213.8,25 213.8,25.1 213.9,25.3 214,25.4 214.1,25.5 214.2,25.7 214.4,25.7 214.5,25.8 214.7,25.9 214.9,25.9 215,26 
			215.1,26 215.2,26 215.3,26 215.4,26 215.5,26 215.6,26 215.8,26 215.9,26 216,26 216.2,25.9 216.3,25.9 216.4,25.8 216.5,25.7 
			216.7,25.7 216.8,25.6 216.5,27 216.5,27 216.5,27 216.4,27.1 216.4,27.1 216.3,27.1 216.2,27.2 216.2,27.2 216.1,27.2 
			215.9,27.3 215.8,27.3 215.7,27.3 215.5,27.3 215.3,27.4 215,27.4 214.8,27.4 214.5,27.3 214.2,27.3 214,27.3 213.8,27.2 
			213.5,27.1 213.3,26.9 213.1,26.8 212.9,26.6 212.7,26.4 212.5,26.2 212.3,25.9 212.2,25.6 212.1,25.3 212.1,24.9 212,24.6 
			212.1,24.2 212.1,23.7 212.2,23.5 212.2,23.3 212.3,23.1 212.3,22.9 212.4,22.7 212.4,22.5 212.5,22.4 212.6,22.2 212.7,22.1 
			212.7,21.9 212.8,21.8 212.9,21.6 213,21.5 213.1,21.4 213.2,21.2 213.3,21.1 213.4,21 213.6,20.9 213.7,20.8 213.8,20.8 
			214,20.7 214.1,20.6 214.2,20.6 214.4,20.5 214.6,20.4 214.7,20.4 214.9,20.4 215.1,20.3 215.2,20.3 215.4,20.3 215.6,20.3 
			215.8,20.3 216,20.3 216.1,20.3 216.3,20.3 216.5,20.3 216.6,20.3 216.7,20.4 216.9,20.4 217,20.4 217.1,20.5 217.2,20.5 
			217.3,20.5 217.4,20.6 217.5,20.6 217.6,20.6 217.6,20.6 217.6,20.6 217.4,22.1 217.4,22.1 		"/>
		<polyline fill="none" stroke="#FFFFFF" stroke-width="0.216" stroke-miterlimit="2.6131" points="217.4,22.1 217.4,22.1 217.3,22 
			217.2,22 217.2,22 217.1,21.9 217,21.9 216.9,21.9 216.8,21.8 216.7,21.8 216.6,21.8 216.5,21.8 216.4,21.8 216.3,21.7 
			216.2,21.7 216.1,21.7 215.9,21.7 215.8,21.7 215.8,21.7 215.7,21.7 215.6,21.7 215.4,21.7 215.3,21.8 215.1,21.8 215,21.9 
			214.8,21.9 214.7,22 214.5,22.1 214.4,22.3 214.3,22.5 214.1,22.6 214,22.9 213.9,23.1 213.8,23.4 213.7,23.8 213.7,23.8 
			213.7,23.9 213.7,24.1 213.7,24.3 213.7,24.5 213.7,24.7 213.7,24.8 213.8,25 213.8,25.1 213.9,25.3 214,25.4 214.1,25.5 
			214.2,25.7 214.4,25.7 214.5,25.8 214.7,25.9 214.9,25.9 214.9,25.9 215,26 215.1,26 215.2,26 215.3,26 215.4,26 215.5,26 
			215.6,26 215.8,26 215.9,26 216,26 216.2,25.9 216.3,25.9 216.4,25.8 216.5,25.7 216.7,25.7 216.8,25.6 216.5,27 216.5,27 
			216.5,27 216.5,27 216.4,27.1 216.4,27.1 216.3,27.1 216.2,27.2 216.2,27.2 216.1,27.2 215.9,27.3 215.8,27.3 215.7,27.3 
			215.5,27.3 215.3,27.4 215,27.4 214.8,27.4 214.5,27.3 214.5,27.3 214.2,27.3 214,27.3 213.8,27.2 213.5,27.1 213.3,26.9 
			213.1,26.8 212.9,26.6 212.7,26.4 212.5,26.2 212.3,25.9 212.2,25.6 212.1,25.3 212.1,24.9 212,24.6 212.1,24.2 212.1,23.7 
			212.1,23.7 212.2,23.5 212.2,23.3 212.3,23.1 212.3,22.9 212.4,22.7 212.4,22.5 212.5,22.4 212.6,22.2 212.7,22.1 212.7,21.9 
			212.8,21.8 212.9,21.6 213,21.5 213.1,21.4 213.2,21.2 213.3,21.1 213.4,21 213.6,20.9 213.7,20.8 213.8,20.8 214,20.7 
			214.1,20.6 214.2,20.6 214.4,20.5 214.6,20.4 214.7,20.4 214.9,20.4 215.1,20.3 215.2,20.3 215.4,20.3 215.6,20.3 215.8,20.3 
			215.8,20.3 216,20.3 216.1,20.3 216.3,20.3 216.5,20.3 216.6,20.3 216.7,20.4 216.9,20.4 217,20.4 217.1,20.5 217.2,20.5 
			217.3,20.5 217.4,20.6 217.5,20.6 217.6,20.6 217.6,20.6 217.6,20.6 217.4,22.1 		"/>
		<polygon fill-rule="evenodd" clip-rule="evenodd" fill="#FFFFFF" points="230.2,27.4 228.8,27.4 228.9,26.8 228.9,26.7 
			228.8,26.8 228.7,26.9 228.6,27 228.5,27.1 228.4,27.2 228.3,27.2 228.2,27.3 228.1,27.3 228,27.3 227.9,27.4 227.8,27.4 
			227.7,27.4 227.6,27.4 227.5,27.4 227.4,27.4 227.3,27.4 227.1,27.4 226.8,27.4 226.6,27.3 226.4,27.2 226.2,27 226,26.8 
			225.9,26.6 225.7,26.4 225.6,26.2 225.6,25.9 225.5,25.7 225.5,25.4 225.4,25.1 225.4,24.9 225.5,24.6 225.5,24.3 225.6,24 
			225.7,23.7 225.8,23.5 225.9,23.2 226.1,23 226.2,22.8 226.4,22.6 226.6,22.4 226.7,22.3 226.9,22.1 227.1,22 227.3,21.9 
			227.5,21.9 227.7,21.8 228,21.8 228.2,21.8 228.3,21.8 228.5,21.8 228.6,21.8 228.7,21.9 228.8,21.9 228.9,21.9 229.1,22 
			229.1,22.1 229.2,22.1 229.3,22.2 229.4,22.3 229.4,22.3 229.5,22.4 229.5,22.5 229.6,22.5 229.6,22.6 229.6,22.6 230,20.5 
			231.4,20.5 230.2,27.4 230.2,27.4 		"/>
		<polyline fill="none" stroke="#FFFFFF" stroke-width="0.216" stroke-miterlimit="2.6131" points="230.2,27.4 228.8,27.4 
			228.9,26.8 228.9,26.7 228.9,26.7 228.8,26.8 228.7,26.9 228.6,27 228.5,27.1 228.4,27.2 228.3,27.2 228.2,27.3 228.1,27.3 
			228,27.3 227.9,27.4 227.8,27.4 227.7,27.4 227.6,27.4 227.5,27.4 227.4,27.4 227.3,27.4 227.3,27.4 227.1,27.4 226.8,27.4 
			226.6,27.3 226.4,27.2 226.2,27 226,26.8 225.9,26.6 225.7,26.4 225.6,26.2 225.6,25.9 225.5,25.7 225.5,25.4 225.4,25.1 
			225.4,24.9 225.5,24.6 225.5,24.3 225.5,24.3 225.6,24 225.7,23.7 225.8,23.5 225.9,23.2 226.1,23 226.2,22.8 226.4,22.6 
			226.6,22.4 226.7,22.3 226.9,22.1 227.1,22 227.3,21.9 227.5,21.9 227.7,21.8 228,21.8 228.2,21.8 228.2,21.8 228.3,21.8 
			228.5,21.8 228.6,21.8 228.7,21.9 228.8,21.9 228.9,21.9 229.1,22 229.1,22.1 229.2,22.1 229.3,22.2 229.4,22.3 229.4,22.3 
			229.5,22.4 229.5,22.5 229.6,22.5 229.6,22.6 229.6,22.6 230,20.5 231.4,20.5 230.2,27.4 		"/>
		<polygon fill-rule="evenodd" clip-rule="evenodd" fill="#FBB230" points="227.9,26.1 228,26.1 228.1,26.1 228.3,26 228.4,26 
			228.5,25.9 228.6,25.8 228.7,25.7 228.8,25.6 228.9,25.5 228.9,25.4 229,25.3 229.1,25.2 229.1,25 229.2,24.9 229.2,24.8 
			229.2,24.6 229.2,24.5 229.3,24.3 229.3,24.2 229.3,24 229.2,23.9 229.2,23.8 229.2,23.7 229.1,23.5 229.1,23.4 229,23.3 
			229,23.2 228.9,23.2 228.8,23.1 228.7,23.1 228.6,23 228.5,23 228.3,23 228.2,23.1 228.1,23.1 228,23.2 227.9,23.2 227.8,23.3 
			227.7,23.4 227.6,23.5 227.5,23.6 227.4,23.7 227.4,23.9 227.3,24 227.3,24.1 227.2,24.3 227.2,24.4 227.1,24.6 227.1,24.8 
			227.1,25.1 227.2,25.3 227.2,25.6 227.3,25.8 227.5,25.9 227.6,26.1 227.9,26.1 227.9,26.1 		"/>
		<polygon fill-rule="evenodd" clip-rule="evenodd" fill="#FFFFFF" points="195.8,26.2 195.6,27.4 194.3,27.4 194.3,27.1 194.3,27 
			194.4,26.8 194.4,26.7 194.3,26.8 194.2,26.9 194.1,27 194,27 193.9,27.1 193.8,27.2 193.6,27.2 193.5,27.3 193.3,27.3 
			193.2,27.4 193,27.4 192.9,27.4 192.7,27.4 192.6,27.4 192.4,27.4 192.3,27.4 192.1,27.4 191.9,27.3 191.8,27.2 191.7,27.2 
			191.5,27.1 191.4,27 191.4,26.9 191.3,26.8 191.2,26.7 191.2,26.6 191.1,26.4 191.1,26.3 191.1,26.2 191.1,26.1 191,26 191,25.9 
			191.1,25.7 191.1,25.5 191.1,25.3 191.2,25.1 191.3,24.9 191.4,24.8 191.5,24.6 191.6,24.5 191.8,24.4 191.9,24.3 192.1,24.2 
			192.2,24.1 192.4,24 192.6,24 192.7,23.9 192.9,23.9 192.9,23.9 192.9,23.9 193,23.9 193,23.9 193.1,23.9 193.2,23.9 193.3,23.8 
			193.3,23.8 193.4,23.8 193.5,23.8 193.6,23.8 193.7,23.8 193.8,23.8 193.9,23.8 193.9,23.8 194,23.8 194.1,23.8 194.2,23.8 
			194.4,23.8 194.5,23.8 194.6,23.8 194.6,23.8 194.7,23.8 194.7,23.8 194.7,23.8 194.7,23.7 194.8,23.6 194.8,23.5 194.8,23.4 
			194.7,23.3 194.6,23.2 194.6,23.1 194.5,23 194.4,23 194.2,22.9 194.1,22.9 194,22.9 193.8,22.9 193.6,22.9 193.5,22.9 
			193.3,22.9 193.1,22.9 193,23 192.8,23 192.6,23 192.5,23 192.4,23.1 192.2,23.1 192.1,23.1 192,23.1 191.9,23.2 191.9,23.2 
			192.3,22 192.4,21.9 192.5,21.9 192.6,21.8 192.7,21.8 192.9,21.8 193,21.8 193.1,21.7 193.3,21.7 193.4,21.7 193.6,21.7 
			193.7,21.7 193.9,21.7 194.1,21.7 194.2,21.7 194.4,21.7 194.6,21.7 194.7,21.7 194.9,21.8 195.1,21.8 195.2,21.8 195.4,21.9 
			195.5,22 195.7,22.1 195.9,22.2 196,22.3 196.1,22.4 196.2,22.5 196.3,22.7 196.3,22.9 196.4,23 196.4,23.2 196.3,23.4 
			195.8,26.2 195.8,26.2 		"/>
		<polyline fill="none" stroke="#FFFFFF" stroke-width="0.216" stroke-miterlimit="2.6131" points="195.8,26.2 195.6,27.4 
			194.3,27.4 194.3,27.4 194.3,27.1 194.3,27 194.4,26.8 194.4,26.7 194.4,26.7 194.3,26.8 194.2,26.9 194.1,27 194,27 193.9,27.1 
			193.8,27.2 193.6,27.2 193.5,27.3 193.3,27.3 193.2,27.4 193,27.4 192.9,27.4 192.7,27.4 192.6,27.4 192.4,27.4 192.3,27.4 
			192.3,27.4 192.1,27.4 191.9,27.3 191.8,27.2 191.7,27.2 191.5,27.1 191.4,27 191.4,26.9 191.3,26.8 191.2,26.7 191.2,26.6 
			191.1,26.4 191.1,26.3 191.1,26.2 191.1,26.1 191,26 191,25.9 191,25.9 191.1,25.7 191.1,25.5 191.1,25.3 191.2,25.1 191.3,24.9 
			191.4,24.8 191.5,24.6 191.6,24.5 191.8,24.4 191.9,24.3 192.1,24.2 192.2,24.1 192.4,24 192.6,24 192.7,23.9 192.9,23.9 
			192.9,23.9 192.9,23.9 192.9,23.9 193,23.9 193,23.9 193.1,23.9 193.2,23.9 193.3,23.8 193.3,23.8 193.4,23.8 193.5,23.8 
			193.6,23.8 193.7,23.8 193.8,23.8 193.9,23.8 193.9,23.8 194,23.8 194,23.8 194.1,23.8 194.2,23.8 194.4,23.8 194.5,23.8 
			194.6,23.8 194.6,23.8 194.7,23.8 194.7,23.8 194.7,23.8 194.7,23.8 194.7,23.7 194.8,23.6 194.8,23.5 194.8,23.5 194.8,23.4 
			194.7,23.3 194.6,23.2 194.6,23.1 194.5,23 194.4,23 194.2,22.9 194.1,22.9 194.1,22.9 194,22.9 193.8,22.9 193.6,22.9 
			193.5,22.9 193.3,22.9 193.1,22.9 193,23 192.8,23 192.6,23 192.5,23 192.4,23.1 192.2,23.1 192.1,23.1 192,23.1 191.9,23.2 
			191.9,23.2 192.3,22 192.3,22 192.4,21.9 192.5,21.9 192.6,21.8 192.7,21.8 192.9,21.8 193,21.8 193.1,21.7 193.3,21.7 
			193.4,21.7 193.6,21.7 193.7,21.7 193.9,21.7 194.1,21.7 194.2,21.7 194.4,21.7 194.6,21.7 194.6,21.7 194.7,21.7 194.9,21.8 
			195.1,21.8 195.2,21.8 195.4,21.9 195.5,22 195.7,22.1 195.9,22.2 196,22.3 196.1,22.4 196.2,22.5 196.3,22.7 196.3,22.9 
			196.4,23 196.4,23.2 196.3,23.4 195.8,26.2 		"/>
		<polygon fill-rule="evenodd" clip-rule="evenodd" fill="#EB2230" points="194.5,24.8 194.5,24.8 194.5,24.8 194.5,24.8 
			194.4,24.8 194.4,24.8 194.3,24.7 194.2,24.7 194.2,24.7 194.1,24.8 194,24.8 193.9,24.8 193.8,24.8 193.7,24.8 193.7,24.8 
			193.6,24.8 193.5,24.8 193.5,24.9 193.5,24.9 193.4,24.9 193.3,24.9 193.3,24.9 193.2,25 193.1,25 193.1,25.1 193,25.1 
			192.9,25.2 192.9,25.2 192.8,25.3 192.8,25.4 192.7,25.4 192.7,25.5 192.7,25.6 192.7,25.8 192.7,25.9 192.7,26 192.8,26.1 
			192.9,26.2 193,26.2 193.1,26.2 193.2,26.2 193.3,26.2 193.4,26.2 193.6,26.2 193.7,26.1 193.8,26.1 193.9,26 194,26 194.1,25.9 
			194.1,25.9 194.2,25.8 194.3,25.8 194.3,25.7 194.3,25.6 194.4,25.6 194.4,25.5 194.4,25.5 194.5,25.3 194.5,25.1 194.5,25 
			194.5,24.8 194.5,24.8 		"/>
		<polygon fill-rule="evenodd" clip-rule="evenodd" fill="#FFFFFF" points="184.8,27.4 183.4,27.4 184.6,20.5 187.1,20.5 
			187.3,24.6 189,20.5 191.6,20.5 190.4,27.4 188.9,27.4 189.8,22.2 189.8,22.2 187.7,27.4 186.1,27.4 186,27.1 186,26.6 186,25.8 
			185.9,24.8 185.9,23.9 185.8,23.1 185.8,22.5 185.8,22.2 185.8,22.2 185.7,22.2 185.7,22.2 185.7,22.2 184.8,27.4 184.8,27.4 		
			"/>
		<polyline fill="none" stroke="#FFFFFF" stroke-width="0.216" stroke-miterlimit="2.6131" points="184.8,27.4 183.4,27.4 
			184.6,20.5 187.1,20.5 187.3,24.6 189,20.5 191.6,20.5 190.4,27.4 188.9,27.4 189.8,22.2 189.8,22.2 187.7,27.4 186.1,27.4 
			186.1,27.4 186,27.1 186,26.6 186,25.8 185.9,24.8 185.9,23.9 185.8,23.1 185.8,22.5 185.8,22.2 185.8,22.2 185.8,22.2 
			185.7,22.2 185.7,22.2 185.7,22.2 184.8,27.4 		"/>
		<polygon fill-rule="evenodd" clip-rule="evenodd" fill="#FFFFFF" points="221.7,26.2 221.5,27.4 220.2,27.4 220.2,27.1 220.2,27 
			220.2,26.8 220.2,26.8 220.1,26.8 220.1,26.9 220,27 219.9,27.1 219.8,27.1 219.6,27.2 219.5,27.3 219.4,27.3 219.2,27.3 
			219.1,27.4 218.9,27.4 218.8,27.4 218.6,27.4 218.5,27.4 218.3,27.4 218.2,27.4 218,27.4 217.9,27.3 217.7,27.2 217.6,27.2 
			217.5,27.1 217.4,27 217.3,26.9 217.2,26.8 217.1,26.7 217.1,26.6 217,26.4 217,26.3 217,26.2 217,26.1 217,26 217,25.9 217,25.7 
			217,25.5 217.1,25.3 217.1,25.1 217.2,24.9 217.3,24.8 217.4,24.6 217.5,24.5 217.7,24.4 217.8,24.3 218,24.2 218.1,24.1 
			218.3,24 218.5,24 218.6,23.9 218.8,23.9 218.8,23.9 218.8,23.9 218.9,23.9 218.9,23.9 219,23.9 219.1,23.9 219.2,23.8 
			219.2,23.8 219.3,23.8 219.4,23.8 219.5,23.8 219.6,23.8 219.7,23.8 219.8,23.8 219.8,23.8 219.9,23.8 220,23.8 220.1,23.8 
			220.3,23.8 220.4,23.8 220.5,23.8 220.6,23.8 220.6,23.8 220.6,23.8 220.6,23.8 220.7,23.7 220.7,23.6 220.7,23.5 220.7,23.4 
			220.6,23.3 220.5,23.2 220.5,23.1 220.4,23 220.3,23 220.1,22.9 220,22.9 219.9,22.9 219.7,22.9 219.6,22.9 219.4,22.9 
			219.2,22.9 219.1,22.9 218.9,23 218.7,23 218.6,23 218.4,23 218.3,23.1 218.2,23.1 218,23.1 217.9,23.1 217.9,23.2 217.8,23.2 
			218.2,22 218.3,21.9 218.4,21.9 218.5,21.8 218.7,21.8 218.8,21.8 218.9,21.8 219.1,21.7 219.2,21.7 219.3,21.7 219.5,21.7 
			219.6,21.7 219.8,21.7 220,21.7 220.1,21.7 220.3,21.7 220.5,21.7 220.6,21.7 220.8,21.8 221,21.8 221.1,21.8 221.3,21.9 
			221.4,22 221.6,22.1 221.8,22.2 221.9,22.3 222,22.4 222.1,22.5 222.2,22.7 222.2,22.9 222.3,23 222.3,23.2 222.3,23.4 
			221.7,26.2 221.7,26.2 		"/>
		<polygon fill-rule="evenodd" clip-rule="evenodd" fill="#FFFFFF" points="221.5,27.4 221.5,27.4 221.7,26.2 221.7,26.2 
			221.5,27.4 221.5,27.3 221.5,27.4 221.5,27.4 221.5,27.4 221.5,27.4 221.5,27.4 		"/>
		<polygon fill-rule="evenodd" clip-rule="evenodd" fill="#FFFFFF" points="220.1,27.4 220.2,27.4 221.5,27.4 221.5,27.3 
			220.2,27.3 220.2,27.4 220.1,27.4 220.1,27.4 220.2,27.4 220.1,27.4 220.1,27.4 		"/>
		<polygon fill-rule="evenodd" clip-rule="evenodd" fill="#FFFFFF" points="220.2,26.8 220.2,26.7 220.2,26.8 220.2,27 220.2,27.1 
			220.1,27.4 220.2,27.4 220.2,27.1 220.2,27 220.2,26.8 220.2,26.8 220.2,26.7 220.2,26.8 220.2,26.8 		"/>
		<polygon fill-rule="evenodd" clip-rule="evenodd" fill="#FFFFFF" points="218.2,27.4 218.2,27.4 218.3,27.5 218.5,27.5 
			218.6,27.5 218.8,27.5 218.9,27.4 219.1,27.4 219.2,27.4 219.4,27.3 219.5,27.3 219.6,27.2 219.8,27.2 219.9,27.1 220,27 
			220.1,26.9 220.2,26.9 220.2,26.8 220.2,26.7 220.1,26.8 220,26.9 219.9,27 219.8,27 219.7,27.1 219.6,27.2 219.5,27.2 
			219.4,27.3 219.2,27.3 219.1,27.4 218.9,27.4 218.8,27.4 218.6,27.4 218.5,27.4 218.3,27.4 218.2,27.4 218.2,27.4 218.2,27.4 
			218.2,27.4 		"/>
		<polygon fill-rule="evenodd" clip-rule="evenodd" fill="#FFFFFF" points="216.9,25.9 216.9,25.9 216.9,26 217,26.1 217,26.2 
			217,26.3 217,26.5 217.1,26.6 217.1,26.7 217.2,26.8 217.2,26.9 217.3,27 217.4,27.1 217.6,27.2 217.7,27.3 217.8,27.3 218,27.4 
			218.2,27.4 218.2,27.4 218,27.3 217.9,27.3 217.7,27.2 217.6,27.1 217.5,27.1 217.4,27 217.3,26.9 217.2,26.8 217.2,26.7 
			217.1,26.6 217.1,26.4 217.1,26.3 217,26.2 217,26.1 217,26 217,25.9 217,25.9 216.9,25.9 216.9,25.9 		"/>
		<polygon fill-rule="evenodd" clip-rule="evenodd" fill="#FFFFFF" points="218.8,23.9 218.8,23.9 218.6,23.9 218.5,23.9 218.3,24 
			218.1,24.1 218,24.2 217.8,24.3 217.7,24.4 217.5,24.5 217.4,24.6 217.3,24.8 217.2,24.9 217.1,25.1 217,25.3 217,25.5 217,25.7 
			216.9,25.9 217,25.9 217,25.7 217,25.5 217.1,25.3 217.2,25.1 217.2,25 217.3,24.8 217.4,24.7 217.6,24.5 217.7,24.4 217.8,24.3 
			218,24.2 218.1,24.1 218.3,24.1 218.5,24 218.6,24 218.8,23.9 218.8,23.9 218.8,23.9 218.8,23.9 		"/>
		<polygon fill-rule="evenodd" clip-rule="evenodd" fill="#FFFFFF" points="219.9,23.7 219.9,23.7 219.8,23.7 219.8,23.8 
			219.7,23.8 219.6,23.8 219.5,23.8 219.4,23.8 219.3,23.8 219.2,23.8 219.2,23.8 219.1,23.8 219,23.8 218.9,23.8 218.9,23.8 
			218.8,23.9 218.8,23.9 218.8,23.9 218.8,23.9 218.8,23.9 218.9,23.9 218.9,23.9 218.9,23.9 219,23.9 219.1,23.9 219.2,23.9 
			219.2,23.9 219.3,23.9 219.4,23.8 219.5,23.8 219.6,23.8 219.7,23.8 219.8,23.8 219.8,23.8 219.9,23.8 219.9,23.8 219.9,23.7 
			219.9,23.7 		"/>
		<polygon fill-rule="evenodd" clip-rule="evenodd" fill="#FFFFFF" points="220.6,23.8 220.6,23.8 220.6,23.8 220.6,23.8 
			220.5,23.8 220.4,23.8 220.3,23.8 220.1,23.8 220,23.7 219.9,23.7 219.9,23.8 220,23.8 220.1,23.8 220.3,23.8 220.4,23.8 
			220.5,23.8 220.6,23.8 220.6,23.8 220.6,23.8 220.7,23.8 220.6,23.8 220.7,23.8 220.7,23.8 220.6,23.8 220.6,23.8 		"/>
		<polygon fill-rule="evenodd" clip-rule="evenodd" fill="#FFFFFF" points="220.6,23.5 220.6,23.5 220.6,23.6 220.6,23.7 
			220.6,23.8 220.6,23.8 220.7,23.8 220.7,23.8 220.7,23.7 220.7,23.6 220.7,23.5 220.7,23.5 220.6,23.5 220.6,23.5 		"/>
		<polygon fill-rule="evenodd" clip-rule="evenodd" fill="#FFFFFF" points="220,23 220,23 220.1,23 220.3,23 220.4,23 220.4,23.1 
			220.5,23.2 220.6,23.3 220.6,23.4 220.6,23.5 220.7,23.5 220.7,23.4 220.6,23.2 220.6,23.1 220.5,23.1 220.4,23 220.3,22.9 
			220.2,22.9 220,22.9 220,22.9 220,23 220,23 		"/>
		<polygon fill-rule="evenodd" clip-rule="evenodd" fill="#FFFFFF" points="217.8,23.2 217.8,23.2 217.9,23.2 218,23.2 218,23.1 
			218.2,23.1 218.3,23.1 218.4,23.1 218.6,23 218.7,23 218.9,23 219.1,23 219.2,23 219.4,23 219.6,23 219.7,23 219.9,23 220,23 
			220,22.9 219.9,22.9 219.7,22.9 219.6,22.9 219.4,22.9 219.2,22.9 219.1,22.9 218.9,22.9 218.7,23 218.6,23 218.4,23 218.3,23 
			218.2,23.1 218,23.1 217.9,23.1 217.9,23.1 217.8,23.2 217.8,23.2 217.8,23.2 217.8,23.2 		"/>
		<polygon fill-rule="evenodd" clip-rule="evenodd" fill="#FFFFFF" points="218.2,21.9 218.2,21.9 217.8,23.2 217.8,23.2 218.2,22 
			218.2,22 218.2,21.9 218.2,21.9 218.2,21.9 218.2,21.9 218.2,21.9 		"/>
		<polygon fill-rule="evenodd" clip-rule="evenodd" fill="#FFFFFF" points="220.5,21.7 220.5,21.7 220.3,21.7 220.1,21.7 220,21.7 
			219.8,21.7 219.6,21.7 219.5,21.7 219.3,21.7 219.2,21.7 219.1,21.7 218.9,21.7 218.8,21.7 218.7,21.8 218.5,21.8 218.4,21.8 
			218.3,21.9 218.2,21.9 218.2,22 218.3,21.9 218.4,21.9 218.5,21.9 218.7,21.8 218.8,21.8 218.9,21.8 219.1,21.8 219.2,21.8 
			219.3,21.7 219.5,21.7 219.6,21.7 219.8,21.7 220,21.7 220.1,21.7 220.3,21.7 220.5,21.7 220.5,21.7 220.5,21.7 220.5,21.7 		"/>
		<polygon fill-rule="evenodd" clip-rule="evenodd" fill="#FFFFFF" points="222.3,23.5 222.3,23.5 222.3,23.2 222.3,23 222.3,22.9 
			222.2,22.7 222.1,22.5 222,22.4 221.9,22.2 221.8,22.1 221.6,22 221.5,21.9 221.3,21.9 221.1,21.8 221,21.8 220.8,21.7 
			220.6,21.7 220.5,21.7 220.5,21.7 220.6,21.8 220.8,21.8 221,21.8 221.1,21.9 221.3,21.9 221.4,22 221.6,22.1 221.7,22.2 
			221.9,22.3 222,22.4 222.1,22.6 222.2,22.7 222.2,22.9 222.2,23 222.2,23.2 222.2,23.4 222.2,23.4 222.3,23.5 222.3,23.5 		"/>
		<polygon fill-rule="evenodd" clip-rule="evenodd" fill="#FFFFFF" points="221.7,26.2 221.7,26.2 222.3,23.5 222.2,23.4 
			221.7,26.2 221.7,26.2 221.7,26.2 221.7,26.2 		"/>
		<polygon fill-rule="evenodd" clip-rule="evenodd" fill="#FBB230" points="220.4,24.8 220.4,24.8 220.4,24.8 220.4,24.8 
			220.3,24.8 220.3,24.7 220.2,24.7 220.1,24.7 220,24.7 220,24.8 219.9,24.8 219.8,24.8 219.7,24.8 219.6,24.8 219.6,24.8 
			219.5,24.8 219.4,24.8 219.4,24.8 219.4,24.9 219.3,24.9 219.3,24.9 219.2,24.9 219.1,25 219.1,25 219,25 218.9,25.1 218.8,25.1 
			218.8,25.2 218.7,25.3 218.7,25.3 218.7,25.4 218.6,25.5 218.6,25.6 218.6,25.8 218.6,25.9 218.7,26 218.7,26.1 218.8,26.2 
			218.9,26.2 219,26.2 219.1,26.2 219.2,26.2 219.4,26.2 219.5,26.2 219.6,26.1 219.7,26.1 219.8,26 219.9,26 220,25.9 220.1,25.9 
			220.2,25.8 220.2,25.7 220.3,25.7 220.3,25.6 220.3,25.5 220.3,25.5 220.4,25.4 220.4,25.3 220.4,25.1 220.4,25 220.4,24.8 
			220.4,24.8 		"/>
		<polygon fill-rule="evenodd" clip-rule="evenodd" fill="#FFFFFF" points="231.2,26.6 231.2,26.5 231.2,26.4 231.3,26.3 
			231.4,26.2 231.5,26.1 231.6,26 231.8,26 231.9,25.9 232.1,26 232.2,26 232.3,26.1 232.4,26.2 232.5,26.3 232.6,26.4 232.6,26.5 
			232.7,26.6 232.5,26.6 232.5,26.6 232.5,26.4 232.4,26.3 232.3,26.2 232.3,26.2 232.2,26.1 232,26.1 231.9,26.1 231.8,26.1 
			231.7,26.1 231.6,26.2 231.5,26.2 231.4,26.3 231.4,26.4 231.4,26.6 231.3,26.6 231.2,26.6 231.2,26.6 		"/>
		<polygon fill-rule="evenodd" clip-rule="evenodd" fill="#FFFFFF" points="231.7,26.6 231.7,26.3 231.9,26.3 232,26.3 232.1,26.3 
			232.1,26.4 232.1,26.4 232.2,26.4 232.2,26.4 232.2,26.5 232.2,26.5 232.2,26.6 232.2,26.6 232.2,26.6 232.2,26.6 231.9,26.6 
			232,26.6 232,26.6 232,26.6 232.1,26.6 232.1,26.6 232.1,26.6 232.1,26.6 232.1,26.5 232.1,26.5 232.1,26.5 232.1,26.5 
			232.1,26.5 232,26.4 232,26.4 232,26.4 231.9,26.4 231.8,26.4 231.8,26.6 231.7,26.6 231.7,26.6 		"/>
		<polygon fill-rule="evenodd" clip-rule="evenodd" fill="#FFFFFF" points="231.2,26.6 231.2,26.7 231.2,26.8 231.2,27 231.3,27.1 
			231.4,27.2 231.5,27.3 231.6,27.4 231.8,27.4 231.9,27.4 232.1,27.4 232.2,27.4 232.3,27.3 232.4,27.2 232.5,27.1 232.6,27 
			232.6,26.8 232.7,26.7 232.7,26.6 232.5,26.6 232.5,26.7 232.5,26.8 232.5,26.9 232.4,27 232.3,27.1 232.3,27.2 232.2,27.2 
			232,27.3 231.9,27.3 231.8,27.3 231.7,27.2 231.6,27.2 231.5,27.1 231.4,27 231.4,26.9 231.4,26.8 231.3,26.7 231.3,26.6 
			231.2,26.6 231.2,26.6 		"/>
		<polygon fill-rule="evenodd" clip-rule="evenodd" fill="#FFFFFF" points="231.7,26.6 231.7,27 231.8,27 231.8,26.7 231.9,26.7 
			232.1,27 232.2,27 232,26.7 232.1,26.7 232.1,26.7 232.1,26.7 232.2,26.7 232.2,26.6 231.9,26.6 231.9,26.7 231.8,26.7 
			231.8,26.6 231.7,26.6 231.7,26.6 		"/>
		<path fill="none" stroke="#FFFFFF" stroke-width="0.216" stroke-miterlimit="2.6131" d="M231.2,26.7L231.2,26.7l0-0.2l0-0.1
			l0.1-0.1l0.1-0.1l0.1-0.1l0.1-0.1l0.1,0l0.1,0l0,0l0.1,0l0.1,0l0.1,0.1l0.1,0.1l0.1,0.1l0.1,0.1l0,0.1l0,0.2l0,0l0,0.2l0,0.1
			l-0.1,0.1l-0.1,0.1l-0.1,0.1l-0.1,0.1l-0.1,0l-0.1,0l0,0l-0.1,0l-0.1,0l-0.1-0.1l-0.1-0.1l-0.1-0.1l-0.1-0.1l0-0.1L231.2,26.7
			 M231.8,27h-0.1v-0.6h0.3l0,0l0.1,0l0.1,0l0,0l0,0l0,0l0,0l0,0l0,0l0,0l0,0l0,0l0,0l0,0l0,0l0,0l0,0h0l0.2,0.3h-0.1l-0.2-0.3h-0.1
			V27 M231.9,26.7L231.9,26.7L231.9,26.7L231.9,26.7l0.1,0l0,0l0,0l0,0l0,0v0l0,0l0,0l0,0l0,0l0,0l0,0l0,0h0h0h-0.2v0.2H231.9
			 M231.9,27.3L231.9,27.3l0.1,0l0.1,0l0.1-0.1l0.1-0.1l0.1-0.1l0.1-0.1l0-0.1l0-0.1l0,0l0-0.1l0-0.1l-0.1-0.1l-0.1-0.1l-0.1-0.1
			l-0.1-0.1l-0.1,0l-0.1,0l0,0l-0.1,0l-0.1,0l-0.1,0.1l-0.1,0.1l-0.1,0.1l-0.1,0.1l0,0.1l0,0.1l0,0l0,0.1l0,0.1l0.1,0.1l0.1,0.1
			l0.1,0.1l0.1,0.1l0.1,0L231.9,27.3"/>
		<polygon fill-rule="evenodd" clip-rule="evenodd" fill="#FFFFFF" points="222.1,27.4 223.6,27.4 223.6,27.4 224.1,24.4 
			224.1,24.3 224.1,24.2 224.2,24 224.2,23.9 224.3,23.8 224.3,23.7 224.4,23.6 224.5,23.5 224.6,23.4 224.7,23.3 224.8,23.3 
			224.9,23.2 225.1,23.1 225.3,23.1 225.4,23.1 225.6,23.1 225.7,23.1 225.8,23.1 225.8,23.1 225.8,23.1 226,21.7 225.9,21.7 
			225.7,21.7 225.6,21.8 225.5,21.8 225.4,21.8 225.2,21.9 225.1,22 225,22 224.9,22.1 224.9,22.2 224.8,22.2 224.7,22.3 
			224.6,22.4 224.5,22.5 224.5,22.6 224.4,22.7 224.5,21.8 223.1,21.8 222.1,27.4 222.1,27.4 222.1,27.4 		"/>
		<polyline fill="none" stroke="#FFFFFF" stroke-width="0.216" stroke-miterlimit="2.6131" points="222.1,27.4 223.6,27.4 
			223.6,27.4 224.1,24.4 224.1,24.4 224.1,24.3 224.1,24.2 224.2,24 224.2,23.9 224.3,23.8 224.3,23.7 224.4,23.6 224.5,23.5 
			224.6,23.4 224.7,23.3 224.8,23.3 224.9,23.2 225.1,23.1 225.3,23.1 225.4,23.1 225.6,23.1 225.6,23.1 225.7,23.1 225.8,23.1 
			225.8,23.1 225.8,23.1 226,21.7 226,21.7 225.9,21.7 225.7,21.7 225.6,21.8 225.5,21.8 225.4,21.8 225.2,21.9 225.1,22 225,22 
			224.9,22.1 224.9,22.2 224.8,22.2 224.7,22.3 224.6,22.4 224.5,22.5 224.5,22.6 224.4,22.7 224.5,21.8 223.1,21.8 222.1,27.4 
			222.1,27.4 		"/>
		<polygon fill-rule="evenodd" clip-rule="evenodd" fill="#FFFFFF" points="208.3,27.4 209.7,27.4 209.8,27.4 210.3,24.4 
			210.3,24.3 210.3,24.2 210.3,24.1 210.4,24 210.4,23.8 210.5,23.7 210.5,23.7 210.6,23.6 210.7,23.5 210.8,23.4 210.9,23.3 
			211,23.3 211.2,23.2 211.3,23.2 211.5,23.2 211.7,23.2 211.7,23.2 211.8,23.2 211.8,23.2 211.8,23.2 211.8,23.2 211.9,23.2 
			211.9,23.2 211.9,23.2 211.9,23.2 211.9,23.1 211.9,23 211.9,22.9 212,22.8 212,22.6 212.1,22.5 212.1,22.3 212.2,22.2 
			212.2,22.1 212.3,22 212.3,21.9 212.4,21.9 212.4,21.8 212.4,21.8 212.4,21.7 212.4,21.7 212.4,21.7 212.4,21.7 212.3,21.7 
			212.3,21.7 212.3,21.7 212.2,21.7 212.2,21.7 212,21.7 211.9,21.7 211.7,21.8 211.6,21.8 211.5,21.8 211.4,21.9 211.3,21.9 
			211.2,22 211.1,22.1 211,22.2 210.9,22.2 210.9,22.3 210.8,22.4 210.7,22.5 210.6,22.6 210.6,22.7 210.7,21.8 209.3,21.8 
			208.3,27.4 208.3,27.4 208.3,27.4 		"/>
		<polyline fill="none" stroke="#FFFFFF" stroke-width="0.216" stroke-miterlimit="2.6131" points="208.3,27.4 209.7,27.4 
			209.8,27.4 210.3,24.4 210.3,24.4 210.3,24.3 210.3,24.2 210.3,24.1 210.4,24 210.4,23.8 210.5,23.7 210.5,23.7 210.6,23.6 
			210.7,23.5 210.8,23.4 210.9,23.3 211,23.3 211.2,23.2 211.3,23.2 211.5,23.2 211.7,23.2 211.7,23.2 211.7,23.2 211.8,23.2 
			211.8,23.2 211.8,23.2 211.8,23.2 211.9,23.2 211.9,23.2 211.9,23.2 211.9,23.2 211.9,23.2 211.9,23.1 211.9,23 211.9,22.9 
			212,22.8 212,22.6 212.1,22.5 212.1,22.3 212.1,22.3 212.2,22.2 212.2,22.1 212.3,22 212.3,21.9 212.4,21.9 212.4,21.8 
			212.4,21.8 212.4,21.7 212.4,21.7 212.4,21.7 212.4,21.7 212.4,21.7 212.3,21.7 212.3,21.7 212.3,21.7 212.2,21.7 212.2,21.7 
			212.2,21.7 212,21.7 211.9,21.7 211.7,21.8 211.6,21.8 211.5,21.8 211.4,21.9 211.3,21.9 211.2,22 211.1,22.1 211,22.2 
			210.9,22.2 210.9,22.3 210.8,22.4 210.7,22.5 210.6,22.6 210.6,22.7 210.7,21.8 209.3,21.8 208.3,27.4 208.3,27.4 		"/>
		<polygon fill-rule="evenodd" clip-rule="evenodd" fill="#FBB230" points="231.2,32.9 231.2,32.8 231.2,32.7 231.3,32.6 
			231.4,32.5 231.5,32.4 231.6,32.3 231.8,32.3 231.9,32.3 232.1,32.3 232.2,32.3 232.3,32.4 232.4,32.5 232.5,32.6 232.6,32.7 
			232.6,32.8 232.6,32.9 232.5,32.9 232.5,32.7 232.4,32.6 232.3,32.6 232.3,32.5 232.2,32.4 232,32.4 231.9,32.4 231.8,32.4 
			231.7,32.4 231.6,32.5 231.5,32.6 231.4,32.6 231.4,32.7 231.4,32.9 231.2,32.9 231.2,32.9 		"/>
		<polygon fill-rule="evenodd" clip-rule="evenodd" fill="#FBB230" points="231.7,32.9 231.7,32.7 231.9,32.7 232,32.7 232.1,32.7 
			232.1,32.7 232.1,32.7 232.2,32.7 232.2,32.8 232.2,32.8 232.2,32.9 232.1,32.9 232.1,32.8 232.1,32.8 232.1,32.8 232.1,32.8 
			232.1,32.8 232,32.8 232,32.7 232,32.7 231.9,32.7 231.8,32.7 231.8,32.9 231.7,32.9 231.7,32.9 		"/>
		<polygon fill-rule="evenodd" clip-rule="evenodd" fill="#FBB230" points="231.2,33 231.2,32.9 231.4,32.9 231.4,32.9 231.3,33 
			231.2,33 231.2,33 		"/>
		<polygon fill-rule="evenodd" clip-rule="evenodd" fill="#FBB230" points="231.7,33 231.7,32.9 231.8,32.9 231.8,33 231.9,33 
			232,32.9 232,32.9 232,32.9 232.1,32.9 232.1,32.9 232.1,32.9 232.1,32.9 232.1,32.9 232.2,32.9 232.2,32.9 232.2,32.9 
			232.2,32.9 232.2,32.9 232.2,33 231.7,33 231.7,33 		"/>
		<polygon fill-rule="evenodd" clip-rule="evenodd" fill="#FBB230" points="232.5,33 232.5,32.9 232.5,32.9 232.6,32.9 232.7,33 
			232.5,33 232.5,33 		"/>
		<polygon fill-rule="evenodd" clip-rule="evenodd" fill="#FBB230" points="231.2,33 231.2,33 231.2,33.1 231.2,33.3 231.3,33.4 
			231.4,33.5 231.5,33.6 231.6,33.7 231.8,33.7 231.9,33.7 232.1,33.7 232.2,33.7 232.3,33.6 232.4,33.5 232.5,33.4 232.6,33.3 
			232.6,33.1 232.7,33 232.7,33 232.5,33 232.5,33 232.5,33.1 232.5,33.2 232.4,33.3 232.3,33.4 232.3,33.5 232.2,33.5 232,33.6 
			231.9,33.6 231.8,33.6 231.7,33.5 231.6,33.5 231.5,33.4 231.4,33.3 231.4,33.2 231.4,33.1 231.3,33 231.3,33 231.2,33 231.2,33 
					"/>
		<polygon fill-rule="evenodd" clip-rule="evenodd" fill="#FBB230" points="231.7,33 231.7,33.3 231.8,33.3 231.8,33 231.9,33 
			232.1,33.3 232.2,33.3 232,33 232.1,33 232.1,33 232.1,33 232.2,33 232.2,33 231.7,33 231.7,33 		"/>
		<path fill-rule="evenodd" clip-rule="evenodd" fill="#FFFFFF" d="M208.4,23.4l0-0.3l-0.1-0.3l-0.1-0.2l-0.1-0.2l-0.2-0.2l-0.2-0.1
			l-0.2-0.1l-0.2-0.1l-0.2-0.1l-0.2-0.1l-0.2,0l-0.2,0l-0.2,0l-0.4,0l-0.4,0.1l-0.3,0.1l-0.3,0.1l-0.3,0.2l-0.2,0.2l-0.2,0.2
			l-0.2,0.2l-0.1,0.2l-0.1,0.2l-0.1,0.2l-0.1,0.2l-0.1,0.2l0,0.2l0,0.2l0,0.2l0,0.4l0,0.4l0.1,0.4l0.1,0.3l0.1,0.3l0.2,0.2l0.2,0.2
			l0.2,0.2l0.2,0.2l0.2,0.1l0.2,0.1l0.3,0.1l0.3,0.1l0.3,0l0.3,0l0.3,0h0.2l0.2,0h0.1l0.1,0l0.1,0l0.1,0l0.1,0l0.1,0l0.1,0l0.1,0
			l0.1,0l0.1,0l0.1,0l0.1,0l0.1,0l0.1,0l0.2-1.3l-0.2,0.1l-0.1,0.1l-0.2,0.1l-0.1,0.1l-0.1,0l-0.1,0l-0.1,0l-0.1,0l-0.1,0l-0.1,0
			h-0.1l-0.1,0l-0.1,0l-0.1,0l-0.1,0l-0.1,0l-0.1,0l-0.1,0l-0.1,0l-0.1-0.1l-0.1-0.1l-0.1-0.1l-0.1-0.1l-0.1-0.1l-0.1-0.1l-0.1-0.1
			l0-0.1l0-0.1l0-0.1l0-0.1l0-0.1l0-0.1h3.4l0-0.3l0.1-0.4l0-0.4L208.4,23.4z M207,23.9h-1.9l0,0l0,0l0-0.1l0-0.1l0-0.1l0-0.1l0-0.1
			l0-0.1l0.1-0.1l0.1-0.1l0.1-0.1l0.1-0.1l0.1-0.1l0.1,0l0.1,0l0.1,0l0.1,0l0.1,0l0.1,0l0.1,0l0.1,0l0.1,0l0.1,0l0.1,0l0.1,0
			l0.1,0.1l0.1,0.1l0.1,0.1l0.1,0.1l0,0.1l0,0.1l0,0.1l0,0.1l0,0.1L207,23.9z"/>
	</g>
</g>
<g>
	<path fill="#F9F9FA" d="M415.6,44.4c0,1.4-1.1,2.5-2.5,2.5h-70.1c-1.4,0-2.5-1.1-2.5-2.5V2.5c0-1.4,1.1-2.5,2.5-2.5h70.1
		c1.4,0,2.5,1.1,2.5,2.5V44.4z"/>
	<g>
		<g>
			<g>
				<g>
					<path fill="#009BDE" d="M389,15.1h-4.9c-0.3,0-0.6,0.2-0.7,0.6l-2,12.6c0,0.2,0.2,0.5,0.4,0.5h2.5c0.2,0,0.4-0.2,0.5-0.4
						l0.6-3.6c0.1-0.3,0.3-0.6,0.7-0.6h1.5c3.2,0,5.1-1.6,5.6-4.7c0.2-1.4,0-2.4-0.6-3.2C391.9,15.5,390.6,15.1,389,15.1z
						 M389.6,19.7c-0.3,1.8-1.6,1.8-2.9,1.8h-0.7l0.5-3.3c0-0.2,0.2-0.3,0.4-0.3h0.3c0.9,0,1.7,0,2.1,0.5
						C389.6,18.6,389.7,19.1,389.6,19.7z"/>
					<path fill="#002F87" d="M354.1,15.1h-4.9c-0.3,0-0.6,0.2-0.7,0.6l-2,12.6c0,0.2,0.2,0.5,0.4,0.5h2.3c0.3,0,0.6-0.2,0.7-0.6
						l0.5-3.4c0.1-0.3,0.3-0.6,0.7-0.6h1.5c3.2,0,5.1-1.6,5.6-4.7c0.2-1.4,0-2.4-0.6-3.2C357,15.5,355.7,15.1,354.1,15.1z
						 M354.6,19.7c-0.3,1.8-1.6,1.8-2.9,1.8H351l0.5-3.3c0-0.2,0.2-0.3,0.4-0.3h0.3c0.9,0,1.7,0,2.1,0.5
						C354.7,18.6,354.7,19.1,354.6,19.7z"/>
					<path fill="#002F87" d="M368.7,19.6h-2.3c-0.2,0-0.4,0.1-0.4,0.3l-0.1,0.7l-0.2-0.2c-0.5-0.7-1.6-1-2.8-1c-2.6,0-4.8,2-5.2,4.7
						c-0.2,1.4,0.1,2.7,0.9,3.6c0.7,0.8,1.7,1.2,3,1.2c2.1,0,3.2-1.3,3.2-1.3l-0.1,0.7c0,0.2,0.2,0.5,0.4,0.5h2.1
						c0.3,0,0.6-0.2,0.7-0.6l1.3-8C369.2,19.8,369,19.6,368.7,19.6z M365.4,24.2c-0.2,1.3-1.3,2.2-2.6,2.2c-0.7,0-1.2-0.2-1.6-0.6
						c-0.3-0.4-0.5-1-0.4-1.6c0.2-1.3,1.3-2.3,2.6-2.3c0.7,0,1.2,0.2,1.6,0.6C365.4,22.9,365.6,23.5,365.4,24.2z"/>
					<path fill="#009BDE" d="M403.6,19.6h-2.3c-0.2,0-0.4,0.1-0.4,0.3l-0.1,0.7l-0.2-0.2c-0.5-0.7-1.6-1-2.8-1c-2.6,0-4.8,2-5.2,4.7
						c-0.2,1.4,0.1,2.7,0.9,3.6c0.7,0.8,1.7,1.2,3,1.2c2.1,0,3.2-1.3,3.2-1.3l-0.1,0.7c0,0.2,0.2,0.5,0.4,0.5h2.1
						c0.3,0,0.6-0.2,0.7-0.6l1.3-8C404.1,19.8,403.9,19.6,403.6,19.6z M400.4,24.2c-0.2,1.3-1.3,2.2-2.6,2.2c-0.7,0-1.2-0.2-1.6-0.6
						c-0.3-0.4-0.5-1-0.4-1.6c0.2-1.3,1.3-2.3,2.6-2.3c0.7,0,1.2,0.2,1.6,0.6C400.3,22.9,400.5,23.5,400.4,24.2z"/>
					<path fill="#002F87" d="M381.2,19.6h-2.4c-0.2,0-0.4,0.1-0.6,0.3l-3.3,4.8l-1.4-4.6c-0.1-0.3-0.4-0.5-0.7-0.5h-2.3
						c-0.3,0-0.5,0.3-0.4,0.5l2.6,7.6l-2.4,3.4c-0.2,0.3,0,0.6,0.3,0.6h2.4c0.2,0,0.4-0.1,0.6-0.3l7.8-11.3
						C381.7,20,381.5,19.6,381.2,19.6z"/>
					<path fill="#009BDE" d="M406.4,15.4l-2,12.8c0,0.2,0.2,0.5,0.4,0.5h2c0.3,0,0.6-0.2,0.7-0.6l2-12.6c0-0.2-0.2-0.5-0.4-0.5h-2.3
						C406.6,15.1,406.4,15.2,406.4,15.4z"/>
				</g>
			</g>
		</g>
	</g>
</g>
<g>
	<g>
		<path fill="#F9F9FA" d="M330.4,44.4c0,1.4-1.1,2.5-2.5,2.5h-70.1c-1.4,0-2.5-1.1-2.5-2.5V2.5c0-1.4,1.1-2.5,2.5-2.5h70.1
			c1.4,0,2.5,1.1,2.5,2.5V44.4z"/>
		<path fill="#F58220" d="M276,46.9h52c1.4,0,2.5-1.1,2.5-2.5V26.9C325.5,30,306.7,40.9,276,46.9z"/>
	</g>
	<g>
		
			<radialGradient id="SVGID_1_" cx="287.7363" cy="-465.364" r="5.1207" gradientTransform="matrix(1 0 0 1 6.416 486.083)" gradientUnits="userSpaceOnUse">
			<stop  offset="5.618000e-03" style="stop-color:#FFEFE1"/>
			<stop  offset="9.682110e-02" style="stop-color:#FFEAD8"/>
			<stop  offset="0.2456" style="stop-color:#FEDEC1"/>
			<stop  offset="0.4337" style="stop-color:#FDCA9E"/>
			<stop  offset="0.6534" style="stop-color:#FAAF72"/>
			<stop  offset="0.8971" style="stop-color:#F79038"/>
			<stop  offset="1" style="stop-color:#F58220"/>
		</radialGradient>
		<path fill="url(#SVGID_1_)" d="M294.2,15.7c-2.9,0-5.2,2.2-5.2,5c0,2.9,2.2,5.1,5.2,5.1c2.9,0,5.2-2.2,5.2-5.1
			C299.3,17.9,297.1,15.7,294.2,15.7z"/>
		<path d="M264.7,15.8h-2.8v9.7h2.8c1.5,0,2.5-0.3,3.5-1.1c1.1-0.9,1.8-2.3,1.8-3.7C269.9,17.8,267.8,15.8,264.7,15.8z M266.9,23.1
			c-0.6,0.5-1.4,0.8-2.6,0.8h-0.5v-6.4h0.5c1.2,0,2,0.2,2.6,0.8c0.7,0.6,1,1.5,1,2.4C268,21.6,267.6,22.6,266.9,23.1z"/>
		<rect x="270.8" y="15.8" width="1.9" height="9.7"/>
		<path d="M277.3,19.6c-1.1-0.4-1.5-0.7-1.5-1.2c0-0.6,0.6-1.1,1.4-1.1c0.6,0,1,0.2,1.5,0.8l1-1.3c-0.8-0.7-1.8-1.1-2.9-1.1
			c-1.7,0-3,1.2-3,2.8c0,1.3,0.6,2,2.4,2.7c0.7,0.3,1.1,0.4,1.3,0.6c0.4,0.2,0.6,0.6,0.6,1c0,0.8-0.6,1.4-1.5,1.4
			c-0.9,0-1.6-0.5-2.1-1.3l-1.2,1.2c0.9,1.3,1.9,1.9,3.4,1.9c2,0,3.4-1.3,3.4-3.2C280.1,21.1,279.5,20.4,277.3,19.6z"/>
		<path d="M280.7,20.7c0,2.9,2.2,5.1,5.1,5.1c0.8,0,1.5-0.2,2.4-0.6V23c-0.8,0.8-1.4,1.1-2.3,1.1c-1.9,0-3.3-1.4-3.3-3.4
			c0-1.9,1.4-3.3,3.2-3.3c0.9,0,1.6,0.3,2.4,1.1v-2.2c-0.8-0.4-1.5-0.6-2.3-0.6C283,15.6,280.7,17.9,280.7,20.7z"/>
		<polygon points="303.6,22.4 301,15.8 299,15.8 303.1,25.8 304.1,25.8 308.3,15.8 306.2,15.8 		"/>
		<polygon points="309.2,25.6 314.5,25.6 314.5,23.9 311.1,23.9 311.1,21.3 314.4,21.3 314.4,19.6 311.1,19.6 311.1,17.5 
			314.5,17.5 314.5,15.8 309.2,15.8 		"/>
		<path d="M322.1,18.7c0-1.8-1.3-2.9-3.4-2.9h-2.8v9.7h1.9v-3.9h0.2l2.6,3.9h2.3l-3.1-4.1C321.3,21.2,322.1,20.2,322.1,18.7z
			 M318.2,20.3h-0.6v-2.9h0.6c1.2,0,1.8,0.5,1.8,1.4C320.1,19.8,319.5,20.3,318.2,20.3z"/>
		<path d="M323.4,16.6c0-0.2-0.1-0.3-0.3-0.3h-0.3v0.9h0.2v-0.3l0.2,0.3h0.3l-0.3-0.4C323.3,16.8,323.4,16.7,323.4,16.6z M323,16.7
			L323,16.7l0-0.2h0c0.1,0,0.2,0,0.2,0.1C323.2,16.6,323.1,16.7,323,16.7z"/>
		<path d="M323.1,16c-0.4,0-0.7,0.3-0.7,0.7c0,0.4,0.3,0.7,0.7,0.7c0.4,0,0.7-0.3,0.7-0.7C323.8,16.3,323.5,16,323.1,16z
			 M323.1,17.3c-0.3,0-0.6-0.3-0.6-0.6c0-0.3,0.3-0.6,0.6-0.6c0.3,0,0.6,0.3,0.6,0.6C323.7,17.1,323.4,17.3,323.1,17.3z"/>
	</g>
</g>
<path fill="#0078A9" d="M75.1,44.4c0,1.4-1.1,2.5-2.5,2.5H2.5c-1.4,0-2.5-1.1-2.5-2.5V2.5C0,1.1,1.1,0,2.5,0h70.1
	c1.4,0,2.5,1.1,2.5,2.5V44.4z"/>
<rect x="0" y="6.2" fill="#FFFFFF" width="75.1" height="34.5"/>
<g>
	<path fill-rule="evenodd" clip-rule="evenodd" fill="#0078A9" d="M75.1,4.4H0v13.2l2.9-6.7h3.7l2.2,5.2v-5.2h5.3l1.8,4.5l1.9-4.5
		H23v0h8v0h6l0.5,0l0.5,0l0.5,0l0.4,0.1l0.4,0.1l0.4,0.1l0.4,0.1l0.3,0.2l0.2,0.1l0.2,0.1l0.2,0.1l0.1,0.1v-1.1h4.3v1.4l0.1-0.1
		l0.2-0.2l0.2-0.2l0.3-0.2l0.3-0.1l0.3-0.1l0.3-0.1l0.3-0.1l0.3-0.1l0.3-0.1l0.3,0l0.3,0l0.3,0l0.3,0h3.9h0.2H57l2.5,5.9v-5.9h4.3
		l1.5,2.7v-2.7h4.2v10.8h-4.2l-1.6-2.8v2.8h-2.1h-2.1h-2.7l-0.8-1.9h-1.7l-0.8,1.9h-4.2H49l-0.2,0l-0.2,0l-0.2,0l-0.2,0l-0.2,0
		l-0.2,0l-0.2,0l-0.5-0.1l-0.5-0.2l-0.5-0.2l-0.4-0.3l-0.4-0.3l0-0.1v1.3h-2.5h-1.8h-3.2l-0.3-0.9l0-0.2l0-0.2l0-0.2l0-0.2l0-0.2
		l0-0.2l0-0.2l0-0.2l0-0.1l0-0.1l0-0.1l0-0.1l0-0.1l0,0l0,0l0,0l0,0l0,0l0,0l0,0l0,0l0,0l0,0l-0.1,0l-0.1,0l-0.1,0l-0.1,0l-0.2,0
		l-0.2,0l-0.2,0l-0.2,0h-0.5v3.2h-3H31h-8h-0.2h-4.3v-1.6l-0.7,1.6h-3.9l-0.5-1.3v1.3h-2.1H8.8H6.4l-0.8-1.9H3.9l-0.8,1.9H0v20.8
		h75.1v-6.8l-0.1,0.1l-0.3,0.2l-0.3,0.2l-0.3,0.2l-0.3,0.1l-0.3,0.1l-0.2,0l-0.2,0l-0.2,0l-0.2,0l-0.2,0l-0.2,0l-0.2,0l-0.2,0h-5.3
		V36l-0.1,0.1l-0.3,0.2l-0.3,0.2l-0.3,0.1l-0.3,0.1l-0.2,0l-0.2,0l-0.2,0l-0.2,0l-0.2,0l-0.2,0l-0.2,0l-0.2,0h-4.3h-1h-6.8h-1.9
		h-2.8l-0.3-1l0-0.2l0-0.2l0-0.2l0-0.2l0-0.2l0-0.2l0-0.2l0-0.2l0-0.1l0-0.1l0-0.1l0-0.1l0-0.1l0,0l0,0l0,0l0,0l0,0l0,0l0,0l0,0l0,0
		l0,0l0,0l-0.1,0l-0.1,0l-0.1,0l-0.1,0l-0.1,0l-0.2,0l-0.2,0h-0.3v3.2h-4.3v-4.2l-0.1,0.1l-0.2,0.2L40,32.9L39.9,33l-0.2,0.1
		l-0.2,0.1l-0.2,0.1l-0.2,0.1L39,33.5l-0.2,0.1l-0.2,0.1l-0.2,0l-0.2,0l-0.2,0l-0.2,0l-0.2,0l-0.2,0l-0.2,0l-0.2,0h-2v2.9h-5.6
		l-1.6-2.1l-1.6,2.1H15.4V25.9h5.4l0,0h5.7l1.4,2l1.5-2h7.2l0.3,0l0.3,0l0.3,0l0.3,0l0.3,0l0.2,0l0.2,0l0.2,0.1l0.3,0.1l0.3,0.1
		l0.3,0.2l0.3,0.2l0.3,0.2l0.2,0.2v-1.3H46l0.5,0l0.5,0l0.4,0l0.4,0.1l0.4,0.1l0.4,0.1l0.4,0.1l0.3,0.2l0.2,0.1l0.2,0.1l0,0v-0.9
		h9.6v0.8l0.2-0.2l0.3-0.2l0.3-0.1l0.3-0.1l0.3-0.1l0.3-0.1l0.1,0l0.1,0l0.1,0l0.2,0l0.2,0l0.2,0l0.2,0l0.2,0h5.2v0.8l0.2-0.2
		l0.3-0.2l0.3-0.1l0.3-0.1L69,26l0.3-0.1l0.1,0l0.1,0l0.1,0l0.1,0l0.2,0l0.2,0l0.2,0l0.2,0h4.6V4.4L75.1,4.4z M59.3,32.8l0.4,0
		l-0.3-0.2l-0.3-0.2l-0.2-0.2l-0.1-0.1l-0.1-0.2l-0.1-0.2l-0.1-0.2v1h0.8V32.8L59.3,32.8z M67.9,32.7L67.9,32.7l0.1,0.1L67.9,32.7
		L67.9,32.7z M24.3,32.1l0.7-0.8l-0.7-0.8V32.1L24.3,32.1z M51.6,14.8h-2l-0.2,0l-0.2,0l-0.1,0l-0.1,0l-0.1,0l-0.1,0l0,0l0,0l0,0
		l0,0l0,0.1l0,0.1l0,0.2l0,0.2l0,0.2l0,0.3l0,0.4l0,0.3l0,0.3l0.1,0.2l0.1,0.2l0,0.1l0,0l0,0l0,0l0.1,0l0.1,0l0.1,0l0.1,0l0.2,0
		l0.2,0h0.7L51.6,14.8L51.6,14.8z"/>
	<path fill-rule="evenodd" clip-rule="evenodd" fill="#0078A9" d="M16.5,16.7h1.9l-1.6,3.7h-2.3L12,14.1v6.3H9.9v-8.4h3.2l2.6,6.6
		L16.5,16.7L16.5,16.7z M19.6,16.7h2.1v3.7h-2.1V16.7L19.6,16.7z M23.9,16.7h6.5v0.2h-4.5v1.9h5.3v1.6h-7.3V16.7L23.9,16.7z
		 M32.2,16.7h7.3c-0.1,0-0.2,0.1-0.3,0.1c0.4,0.1,0.7,0.2,0.9,0.4c0.2,0.1,0.4,0.3,0.5,0.6c0.1,0.2,0.2,0.4,0.3,0.6
		c0,0.2,0.1,0.5,0.1,0.8c0.1,0.6,0.1,1,0.2,1.3h-2.3c-0.1-0.2-0.1-0.6-0.2-1.2c-0.1-0.5-0.2-0.9-0.3-1.1c-0.1-0.3-0.4-0.5-0.7-0.6
		c-0.4-0.2-0.9-0.3-1.7-0.3h-1.7v3.2h-2.1V16.7L32.2,16.7z M42.3,16.7h1.8v3.7h-1.8V16.7L42.3,16.7z M45.2,16.7h2
		c0.1,0.9,0.3,1.5,0.7,1.8c0.3,0.3,0.9,0.4,1.6,0.4h1.5l0.9-2.2H54L53.9,17h2.5l-0.1-0.3h1.9l1.6,3.7h-2.2l-0.8-1.9h-3.3l-0.8,1.9
		h-0.4h-1.7h-1.3c-0.6,0-1,0-1.3-0.1c-1.1-0.2-1.8-0.8-2.3-1.7C45.4,18.1,45.3,17.5,45.2,16.7L45.2,16.7z M60.7,16.7h1.7v3.7h-1.7
		V16.7L60.7,16.7z M63.9,16.7h1.8l0.9,1.6v-1.6h1.8v3.7H66L63.9,16.7L63.9,16.7z M68.3,16.7h-1.8v-4.7h1.8V16.7L68.3,16.7z
		 M65.7,16.7h-1.8l-1.4-2.5v2.5h-1.7v-4.7h2.3L65.7,16.7L65.7,16.7z M58.2,16.7h-1.9l-1.1-2.7L54,16.7h-1.9l2-4.7h2.1L58.2,16.7
		L58.2,16.7z M47.3,16.7h-2c0-0.2,0-0.3,0-0.5c0-1.1,0.2-2,0.7-2.8c0.3-0.5,0.8-0.9,1.3-1.1c0.5-0.2,1.3-0.4,2.1-0.4h2.9v1.5h-2.7
		c-0.8,0-1.4,0.2-1.8,0.6c-0.3,0.4-0.5,1-0.5,1.9C47.3,16.3,47.3,16.5,47.3,16.7L47.3,16.7z M44.2,16.7h-1.8v-4.7h1.8V16.7
		L44.2,16.7z M39.4,16.7h-7.3v-4.7H37c1.4,0,2.3,0.1,2.9,0.4c0.4,0.2,0.7,0.5,0.9,0.8c0.2,0.3,0.3,0.7,0.3,1.1
		c0,0.8-0.2,1.4-0.7,1.8C40.1,16.4,39.8,16.6,39.4,16.7L39.4,16.7z M30.4,16.7h-6.5v-4.7h7.2v1.6h-5.2v1.7h4.5V16.7L30.4,16.7z
		 M21.7,16.7h-2.1v-2.6l-1.1,2.6h-1.9l1.9-4.7h3.2V16.7L21.7,16.7z M59.5,35.5V34h3.7c0.6,0,1-0.1,1.2-0.2c0.3-0.2,0.4-0.4,0.4-0.8
		c0-0.4-0.2-0.7-0.5-0.9C64.2,32,63.8,32,63.4,32h-1.5c-0.9,0-1.6-0.2-2-0.5c-0.3-0.2-0.5-0.5-0.6-0.8c-0.1-0.3-0.2-0.7-0.2-1.1
		c0-0.6,0.2-1.1,0.5-1.6c0.3-0.5,0.8-0.7,1.6-0.8c0.2,0,0.6,0,1.1,0h4v1.5h-3.6c-0.5,0-0.9,0-1.1,0.1c-0.4,0.1-0.5,0.4-0.5,0.9
		c0,0.4,0.2,0.7,0.5,0.8c0.2,0.1,0.5,0.1,1,0.1h1.3c0.7,0,1.2,0.1,1.5,0.2c0.6,0.2,1,0.6,1.2,1.1c0.2,0.4,0.3,0.8,0.3,1.3
		c0,0.5-0.1,1-0.3,1.4c-0.3,0.6-0.8,0.9-1.4,1c-0.3,0.1-0.8,0.1-1.4,0.1H59.5L59.5,35.5z M50.8,27.1h7.2v1.6h-5.2v1.7h4.5V32h-4.5
		v1.9h5.3v1.6h-7.3V27.1L50.8,27.1z M16.5,27.1h6.6l0,0h2.6l2,2.8l2.2-2.8h1.9h0.7h4c0.8,0,1.5,0.1,1.8,0.2c0.6,0.2,1.1,0.6,1.5,1.2
		c0.3,0.4,0.4,0.9,0.4,1.4c0,0.4-0.1,0.8-0.3,1.2c-0.2,0.4-0.4,0.7-0.7,0.9c-0.3,0.2-0.6,0.4-0.9,0.5c-0.3,0.1-0.7,0.1-1.3,0.1h-3.2
		v2.9h-1.3h-0.7H30l-2.2-2.9l-2.2,2.9h-1.8H23h-6.5V27.1L16.5,27.1z M23.7,27.8v0.9h-5.2v1.7H23V32h-4.5v1.9h5.3l0.5,0l2.2-2.6
		L23.7,27.8L23.7,27.8z M67.9,35.5V34h3.7c0.6,0,1-0.1,1.2-0.2c0.3-0.2,0.4-0.4,0.4-0.8c0-0.4-0.2-0.7-0.5-0.9
		C72.5,32,72.2,32,71.8,32h-1.5c-0.9,0-1.6-0.2-2-0.5c-0.3-0.2-0.5-0.5-0.6-0.8c-0.1-0.3-0.2-0.7-0.2-1.1c0-0.6,0.2-1.1,0.5-1.6
		c0.3-0.5,0.8-0.7,1.6-0.8c0.2,0,0.6,0,1.1,0h4v1.5H71c-0.5,0-0.9,0-1.1,0.1c-0.4,0.1-0.5,0.4-0.5,0.9c0,0.4,0.2,0.7,0.5,0.8
		c0.2,0.1,0.5,0.1,1,0.1h1.3c0.7,0,1.2,0.1,1.5,0.2c0.6,0.2,1,0.6,1.2,1.1c0.2,0.4,0.3,0.8,0.3,1.3c0,0.5-0.1,1-0.3,1.4
		c-0.3,0.6-0.8,0.9-1.4,1c-0.3,0.1-0.8,0.1-1.4,0.1H67.9L67.9,35.5z M43.5,30.8h2.6c0.4,0,0.8-0.1,0.9-0.2c0.3-0.2,0.4-0.5,0.4-1
		c0-0.5-0.2-0.8-0.6-1c-0.1,0-0.4-0.1-0.7-0.1h-2.6V30.8L43.5,30.8z M43.5,32.3v3.2h-1.9v-8.4H46c1.2,0,2.1,0.1,2.6,0.4
		c0.3,0.2,0.6,0.5,0.8,0.8c0.2,0.3,0.3,0.7,0.3,1.1c0,0.8-0.2,1.4-0.6,1.8c-0.3,0.3-0.6,0.5-1,0.6c0.3,0.1,0.6,0.2,0.8,0.4
		c0.2,0.1,0.3,0.3,0.5,0.6c0.1,0.2,0.2,0.4,0.2,0.6c0,0.2,0.1,0.5,0.1,0.8c0,0.6,0.1,1,0.2,1.3h-2.1c-0.1-0.2-0.1-0.6-0.2-1.2
		c-0.1-0.5-0.1-0.9-0.3-1.1c-0.1-0.3-0.3-0.5-0.6-0.6c-0.3-0.2-0.8-0.3-1.5-0.3H43.5L43.5,32.3z M31.9,27.9l-2.8,3.3l2.8,3.4V27.9
		L31.9,27.9z M33.9,31.1h2.7c0.5,0,0.8-0.1,1-0.2c0.3-0.2,0.4-0.6,0.4-1.1c0-0.6-0.2-0.9-0.7-1.1c-0.2-0.1-0.4-0.1-0.8-0.1h-2.8
		V31.1L33.9,31.1z M4.6,14.1L3.4,17h2.5L4.6,14.1L4.6,14.1z M0,20.5l3.6-8.4h2.1l3.6,8.4H7.1l-0.8-1.9H3l-0.8,1.9H0L0,20.5z
		 M34.3,15.8h2.9c0.5,0,0.8-0.1,1-0.2c0.3-0.2,0.5-0.5,0.5-1c0-0.5-0.2-0.8-0.7-1c-0.2,0-0.4-0.1-0.8-0.1h-2.9V15.8L34.3,15.8z"/>
</g>
</svg>
